<!DOCTYPE svg PUBLIC "-//W3C//DTD SVG 20010904//EN" "http://www.w3.org/TR/2001/REC-SVG-20010904/DTD/svg10.dtd">
<svg version="1.0" xmlns="http://www.w3.org/2000/svg" width="192px" height="192px" viewBox="0 0 1920 1920" preserveAspectRatio="xMidYMid meet">
<g id="layer1" fill="#ff4081" stroke="none">
 <path d="M860 1765 c-80 -80 -149 -145 -155 -145 -6 0 -33 22 -60 50 l-49 50 -45 -27 c-221 -128 -385 -361 -418 -593 l-8 -55 -54 -3 -54 -3 6 -107 c25 -409 267 -732 646 -864 31 -10 101 -26 155 -34 l100 -15 142 142 143 143 55 -52 55 -52 53 31 c219 129 360 321 408 559 l17 85 49 5 49 5 -1 105 c-2 134 -31 254 -89 378 -144 304 -411 493 -756 535 l-45 6 -144 -144z m-470 -715 l0 -80 60 0 60 0 0 80 0 80 45 0 45 0 0 -190 0 -190 -45 0 -45 0 0 65 0 65 -60 0 -60 0 0 -65 0 -65 -50 0 -50 0 0 190 0 190 50 0 50 0 0 -80z m460 -60 l0 -140 50 0 50 0 0 -50 0 -50 -140 0 -140 0 0 50 0 50 45 0 45 0 0 140 0 140 45 0 45 0 0 -140z m350 0 l0 -140 45 0 45 0 0 -50 0 -50 -140 0 -140 0 0 50 0 50 50 0 50 0 0 140 0 140 45 0 45 0 0 -140z m250 75 l0 -65 79 0 c69 0 84 -3 107 -23 22 -19 28 -34 32 -80 10 -121 -24 -147 -193 -147 l-115 0 0 190 0 190 45 0 45 0 0 -65z"/>
 <path d="M1450 880 l0 -30 60 0 60 0 0 30 0 30 -60 0 -60 0 0 -30z"/>
 </g>
<g id="layer2" fill="#fffeff" stroke="none">
 <path d="M0 960 l0 -960 960 0 960 0 0 960 0 960 -960 0 -960 0 0 -960z m1161 925 c89 -18 208 -66 294 -120 265 -165 434 -464 439 -775 l1 -105 -49 -5 -49 -5 -17 -85 c-48 -238 -189 -430 -408 -559 l-53 -31 -55 52 -55 52 -143 -143 -142 -142 -100 15 c-317 48 -571 237 -709 528 -55 116 -83 231 -92 370 l-6 107 54 3 54 3 8 55 c33 232 197 465 418 593 l45 27 49 -50 c27 -28 54 -50 60 -50 6 0 75 65 155 145 l144 144 45 -6 c25 -3 76 -11 112 -18z"/>
 <path d="M290 940 l0 -190 50 0 50 0 0 65 0 65 60 0 60 0 0 -65 0 -65 45 0 45 0 0 190 0 190 -45 0 -45 0 0 -80 0 -80 -60 0 -60 0 0 80 0 80 -50 0 -50 0 0 -190z"/>
 <path d="M760 990 l0 -140 -45 0 -45 0 0 -50 0 -50 140 0 140 0 0 50 0 50 -50 0 -50 0 0 140 0 140 -45 0 -45 0 0 -140z"/>
 <path d="M1110 990 l0 -140 -50 0 -50 0 0 -50 0 -50 140 0 140 0 0 50 0 50 -45 0 -45 0 0 140 0 140 -45 0 -45 0 0 -140z"/>
 <path d="M1360 940 l0 -190 115 0 c169 0 203 26 193 147 -4 46 -10 61 -32 80 -23 20 -38 23 -107 23 l-79 0 0 65 0 65 -45 0 -45 0 0 -190z m210 -60 l0 -30 -60 0 -60 0 0 30 0 30 60 0 60 0 0 -30z"/>
 </g>

</svg>